<svg id="Layer_1" data-name="Layer 1" xmlns="http://www.w3.org/2000/svg" viewBox="0 0 916.734 607.479">
  <path d="M859.923,607.479c29.723,0,54.374-25,56.44-57.229,4.723-73.674-35.406-144.136-135.113-163.039-61.9-11.734-131.79-95.762-164.131-159.679C561.606,117.818,484.7,63.554,405.368,63.554,275.838,63.554,257.621,134.216,201.2,221,101.887,373.735,58.56,375.822,9.13,477.8-.9,498.5-.736,526.328.733,550.257c1.979,32.234,26.719,57.222,56.44,57.222Z" fill="#f3f5fd"></path>
  <g>
    <path d="M817.692,149.29l3.424,1.15s-.447,12.144-1.712,18.321-2.251,14.228-6.181,15.113c-5.218,1.174-11.441,1.607-15.962-.009-3.419-1.222-3.944-12.83-4.278-18.564-.149-2.546.175-2.325,2.72-2.15,5.208.358,13.308.633,16.29-.8C816.532,160.172,817.692,149.29,817.692,149.29Z" fill="#0f1011"></path>
    <g>
      <path d="M830.352,194.8s-7.733-4.1-6.006-25.157l-15.976-2.962s1.795,18.878-6.288,24.872Z" fill="#E98862"></path>
      <path d="M833.411,161.48c-1.106,6.389-4.592,12.438-10.228,14.5-6.689,2.45-11.644,2.615-19.357,2.615-10.525,0-10.177-10.976-10.473-22.038-.3-11.1-.232-20.484,3.928-24.354,8.3-7.724,33.491-5.367,36.456,7.553C835.27,146.44,834.464,155.4,833.411,161.48Z" fill="#E98862"></path>
    </g>
    <path d="M838.479,153.264c-1.537,9.711-3.55,12.773-6.456,17.416a24.084,24.084,0,0,1-6.787,7.354c-2.142,1.38-23.154,1.094-26.781.563-5.352-.782-6.163-16.03-5.207-16.03,1.19,0,1.473-.032,2.813-.032,2.445,0,2.689-14.567,3.15-21.012a8.34,8.34,0,0,0-1.134-.079C786.572,141.444,841.059,136.962,838.479,153.264Z" fill="#0f1011"></path>
    <path d="M801.271,162.849a6.133,6.133,0,0,0,6.27-5.629,6.033,6.033,0,0,0-5.56-6.621C801.841,154.959,801.611,159.549,801.271,162.849Z" fill="#E98862"></path>
    <path d="M838.479,153.264s5.394-27.279-20.673-29.8-24.5,21.851-24.5,21.851l10.343,5.271S815.193,153.758,838.479,153.264Z" fill="#262626"></path>
    <path d="M834.762,150.092a8.951,8.951,0,1,0-17.895-.5" fill="#0f1011"></path>
    <path d="M803.644,150.584s-8.507-2.868-13.059-5.556c-4.847-2.862-11.4-8.063-11.367-9.611.06-2.7,9.489-3.453,17.192-3.148l-.059.115A12.251,12.251,0,0,0,799.8,147.6Z" fill="#262626"></path>
  </g>
  <rect x="284.922" y="12.494" width="324" height="582.491" transform="translate(893.844 607.479) rotate(-180)" fill="#dee8f5"></rect>
  <path d="M284.922,12.494h324V594.985h-324V12.494M272.428,0V607.479H621.416V0H272.428Z" fill="#c1d8ed"></path>
  <circle cx="559.405" cy="303.74" r="14.667" fill="#fff"></circle>
  <path d="M762.621,596.436c-2.214-18.618-2.214-20.533-2.214-21.163h21c0-.064,0-.146,0-.245.074,1.554,1.134,11.035,2.073,18.927Z" fill="#E98862"></path>
  <path d="M846.3,598.947s-.071-21.748-.071-23.674h21c0,1.92.071,23.6.071,23.605Z" fill="#E98862"></path>
  <g>
    <path d="M748.8,257.726c-2.966-.286-12.732-2.809-13.683-.358-.571,1.47,6.647,3.966,6.647,3.966" fill="#E98862"></path>
    <path d="M749.209,269.769s-20.815,6.294-31.411-4.2a1.887,1.887,0,0,1,1.4-3.226c7.8.292,23.88.265,22.512-5.028l12.5,1.207" fill="#E98862"></path>
  </g>
  <rect x="660.752" y="213.855" width="100.969" height="83.967" fill="#8ddbe0"></rect>
  <rect x="660.752" y="213.855" width="100.969" height="83.967" fill="#0cbc8b"></rect>
  <g opacity="0.12">
    <rect x="660.752" y="213.855" width="100.969" height="83.967"></rect>
  </g>
  <rect x="638.752" y="213.855" width="90.969" height="83.967" fill="#0cbc8b"></rect>
  <path d="M835.84,591.728l36.869-3.115c-4.492-68.715-11.721-180.805-15.428-241.085-.765-12.425-2.96-49.706-2.96-49.706l-76.078,4.7-.781,5.33-.267-.079c-8.92,47.286-12.716,99.511-19.947,147.134-.509,44.1-.649,90.292-2.374,134.272l36.994.63c-.117-42.928.949-87.845,2.213-130.9,6.31-34.336,13.253-70.27,20.514-104.942C820.937,425.373,829.157,523.525,835.84,591.728Z" fill="#262626"></path>
  <path d="M820.768,607.069a4.109,4.109,0,0,1-4.076-4.428h0a4.107,4.107,0,0,1,2.659-3.529l24.442-8.186a3.459,3.459,0,0,1,2.873.319,19.108,19.108,0,0,0,11.467,3.4,17.035,17.035,0,0,0,8.821-3.222,1.546,1.546,0,0,1,2.527,1.2v11.952a2.677,2.677,0,0,1-2.689,2.678Z" fill="#c1d8ed"></path>
  <path d="M737.035,607.069a4.108,4.108,0,0,1-4.076-4.428h0a4.108,4.108,0,0,1,2.658-3.529l24.443-8.186a3.457,3.457,0,0,1,2.872.319,19.112,19.112,0,0,0,11.468,3.4,17.031,17.031,0,0,0,8.82-3.222,1.547,1.547,0,0,1,2.528,1.2v11.952a2.678,2.678,0,0,1-2.689,2.678Z" fill="#c1d8ed"></path>
  <g>
    <path d="M696.377,262.065c-2.979.079-12.98-1.231-13.624,1.318-.387,1.528,7.083,3.123,7.083,3.123" fill="#E98862"></path>
    <path d="M709.568,271.425c.114,4.314-8.531,7.161-20.846,7.486s-23.633-2-23.747-6.308,9.776-8.074,22.09-8.4S709.454,267.111,709.568,271.425Z" fill="#E98862"></path>
  </g>
  <path d="M864.163,271.5l-2.644-55.888a30.17,30.17,0,0,0-.3-6.332l-.009-.194h-.028a20.357,20.357,0,0,0-5.789-11.328c-4.568-4.569-12.479-7.526-22.116-7.526-14.344,0-33.934.031-37.949.2-13.143.563-18.788,6.834-20.8,15.923L750.312,258.7l-57.636,1.212.441,21,64.191-1.351a10.5,10.5,0,0,0,7.723-3.633l11,.875c-2.082,16.219-6.306,21.558-3.037,29.069,4.194,9.625,86.523,13.629,87.623-3.316.4-6.234-2.6-12.015-5.211-19.843a10.9,10.9,0,0,0,8.761-11.207Zm-87.176-16.43-1.787-.149,1.6-3.456C776.884,252.683,776.943,253.883,776.987,255.072Z" fill="#367CFF"></path>
  <path d="M115.94,598.606c-19.131-5.929-37.692-13.677-54.6-35.361-3.47-4.443-6.731-10.136-4.83-15.454,1.431-4,5.572-6.565,9.779-7.221a20.3,20.3,0,0,1,4.732-.13c.007,0,.015,0,.018,0a39.957,39.957,0,0,1,7.16,1.4l.668.19a117.956,117.956,0,0,1,31.555,14.251,4.647,4.647,0,0,0,6.473-6.327,28.118,28.118,0,0,0-3.458-4.537,44.59,44.59,0,0,0-6.292-5.456c-3.007-2.194-6.216-4.151-9.356-6.156a259.14,259.14,0,0,1-33.073-24.993c-7.379-6.574-14.6-13.869-18.1-23.111-1.611-4.251-2.345-9.15-.422-13.269,3.172-6.766,12.157-8.657,19.505-7.254,12.875,2.466,23.161,11.9,32.281,21.311,7.564,7.817,16.04,16.473,26.907,16.953a9.511,9.511,0,0,0,5.357-1.075c3.1-1.877,3.9-6.228,2.793-9.682s-3.662-6.214-6.13-8.864c-14.344-15.389-28.46-31.4-37.775-50.254s-13.44-41.12-6.968-61.139c1.9-5.853,4.749-11.548,9.2-15.8s10.686-6.918,16.793-6.1c8.319,1.1,14.584,8.118,18.8,15.366,14.489,24.875,13.6,55.353,17.684,83.847,1.142,7.978,2.8,16.159,7.553,22.725a5.371,5.371,0,0,0,1.667,1.555c3.91,2.264,7.418-2.3,8.888-6.176,5.8-15.327,7.244-32.856,17.62-45.542,3.959-4.829,9.565-8.866,15.807-8.826,7.625.052,14.155,6.421,16.38,13.718s.894,15.218-1.49,22.462c-4.426,13.432-12.358,25.5-21.705,36.1-4.929,5.6-10.5,11.258-11.979,18.564a14.808,14.808,0,0,0,4.649,13.651,8.68,8.68,0,0,0,6.427,2.1c2.5-.23,4.768-1.506,6.95-2.747.916-.522,1.835-1.051,2.759-1.57q5.467-3.113,10.936-6.233c9.268-5.287,20.459-10.689,30.112-6.136,4.931,2.328,8.153,6.905,9.672,12.157a26.6,26.6,0,0,1,0,14.581c-2.876,9.913-21,37.5-28.475,44.612C211.672,583.05,181.4,618.892,115.94,598.606Z" fill="#8ddbe0"></path>
</svg>